<svg width="168" height="26" viewBox="0 0 168 26" fill="none" xmlns="http://www.w3.org/2000/svg">
<g filter="url(#filter0_d_4109_367)">
<mask id="path-1-outside-1_4109_367" maskUnits="userSpaceOnUse" x="3" y="-1" width="162" height="20" fill="black">
<rect fill="white" x="3" y="-1" width="162" height="20"/>
<path d="M15.3113 4.712V17H10.0073V4.712H4.58325V0.487999H20.7113V4.712H15.3113ZM23.1276 0.487999H37.4076V4.448H28.4316V6.728H36.1116V10.52H28.4316V13.04H37.5756V17H23.1276V0.487999ZM48.3199 0.199999C50.7679 0.199999 52.7039 0.815999 54.1279 2.048C55.5519 3.264 56.2639 5.008 56.2639 7.28H51.1999C51.1999 6.32 50.9439 5.56 50.4319 5C49.9359 4.44 49.2239 4.16 48.2959 4.16C47.2239 4.16 46.4319 4.496 45.9199 5.168C45.4239 5.84 45.1759 6.776 45.1759 7.976V9.512C45.1759 10.696 45.4239 11.632 45.9199 12.32C46.4319 12.992 47.2079 13.328 48.2479 13.328C49.2719 13.328 50.0479 13.064 50.5759 12.536C51.1039 12.008 51.3679 11.264 51.3679 10.304H56.2639C56.2639 12.56 55.5679 14.288 54.1759 15.488C52.7999 16.688 50.8479 17.288 48.3199 17.288C45.5039 17.288 43.3679 16.568 41.9119 15.128C40.4719 13.688 39.7519 11.56 39.7519 8.744C39.7519 5.928 40.4719 3.8 41.9119 2.36C43.3679 0.919999 45.5039 0.199999 48.3199 0.199999ZM70.2636 17V10.736H64.4316V17H59.1276V0.487999H64.4316V6.512H70.2636V0.487999H75.5676V17H70.2636ZM98.9199 17L91.9839 8.984V17H87.1119V0.487999H91.7439L98.6799 8.624V0.487999H103.552V17H98.9199ZM107.104 0.487999H121.384V4.448H112.408V6.728H120.088V10.52H112.408V13.04H121.552V17H107.104V0.487999ZM136.832 17L134.696 6.944H134.6L132.464 17H126.632L122.768 0.487999H128.288L130.184 9.848H130.28L132.152 0.487999H137.384L139.376 9.848H139.472L141.248 0.487999H146.528L142.664 17H136.832ZM155.36 0.199999C157.472 0.199999 159.208 0.631999 160.568 1.496C161.928 2.344 162.624 3.608 162.656 5.288V5.576H157.688V5.48C157.688 5 157.512 4.6 157.16 4.28C156.808 3.96 156.272 3.8 155.552 3.8C154.848 3.8 154.304 3.904 153.92 4.112C153.552 4.32 153.368 4.576 153.368 4.88C153.368 5.312 153.624 5.632 154.136 5.84C154.648 6.048 155.472 6.264 156.608 6.488C157.936 6.76 159.024 7.048 159.872 7.352C160.736 7.64 161.488 8.12 162.128 8.792C162.768 9.464 163.096 10.376 163.112 11.528C163.112 13.48 162.448 14.928 161.12 15.872C159.808 16.816 158.048 17.288 155.84 17.288C153.264 17.288 151.256 16.856 149.816 15.992C148.392 15.128 147.68 13.6 147.68 11.408H152.696C152.696 12.24 152.912 12.8 153.344 13.088C153.776 13.36 154.448 13.496 155.36 13.496C156.032 13.496 156.584 13.424 157.016 13.28C157.464 13.136 157.688 12.84 157.688 12.392C157.688 11.992 157.44 11.696 156.944 11.504C156.464 11.296 155.672 11.08 154.568 10.856C153.224 10.568 152.112 10.272 151.232 9.968C150.352 9.648 149.584 9.128 148.928 8.408C148.272 7.688 147.944 6.712 147.944 5.48C147.944 3.672 148.64 2.344 150.032 1.496C151.44 0.631999 153.216 0.199999 155.36 0.199999Z"/>
</mask>
<path d="M15.3113 4.712V17H10.0073V4.712H4.58325V0.487999H20.7113V4.712H15.3113ZM23.1276 0.487999H37.4076V4.448H28.4316V6.728H36.1116V10.52H28.4316V13.04H37.5756V17H23.1276V0.487999ZM48.3199 0.199999C50.7679 0.199999 52.7039 0.815999 54.1279 2.048C55.5519 3.264 56.2639 5.008 56.2639 7.28H51.1999C51.1999 6.32 50.9439 5.56 50.4319 5C49.9359 4.44 49.2239 4.16 48.2959 4.16C47.2239 4.16 46.4319 4.496 45.9199 5.168C45.4239 5.84 45.1759 6.776 45.1759 7.976V9.512C45.1759 10.696 45.4239 11.632 45.9199 12.32C46.4319 12.992 47.2079 13.328 48.2479 13.328C49.2719 13.328 50.0479 13.064 50.5759 12.536C51.1039 12.008 51.3679 11.264 51.3679 10.304H56.2639C56.2639 12.56 55.5679 14.288 54.1759 15.488C52.7999 16.688 50.8479 17.288 48.3199 17.288C45.5039 17.288 43.3679 16.568 41.9119 15.128C40.4719 13.688 39.7519 11.56 39.7519 8.744C39.7519 5.928 40.4719 3.8 41.9119 2.36C43.3679 0.919999 45.5039 0.199999 48.3199 0.199999ZM70.2636 17V10.736H64.4316V17H59.1276V0.487999H64.4316V6.512H70.2636V0.487999H75.5676V17H70.2636ZM98.9199 17L91.9839 8.984V17H87.1119V0.487999H91.7439L98.6799 8.624V0.487999H103.552V17H98.9199ZM107.104 0.487999H121.384V4.448H112.408V6.728H120.088V10.52H112.408V13.04H121.552V17H107.104V0.487999ZM136.832 17L134.696 6.944H134.6L132.464 17H126.632L122.768 0.487999H128.288L130.184 9.848H130.28L132.152 0.487999H137.384L139.376 9.848H139.472L141.248 0.487999H146.528L142.664 17H136.832ZM155.36 0.199999C157.472 0.199999 159.208 0.631999 160.568 1.496C161.928 2.344 162.624 3.608 162.656 5.288V5.576H157.688V5.48C157.688 5 157.512 4.6 157.16 4.28C156.808 3.96 156.272 3.8 155.552 3.8C154.848 3.8 154.304 3.904 153.92 4.112C153.552 4.32 153.368 4.576 153.368 4.88C153.368 5.312 153.624 5.632 154.136 5.84C154.648 6.048 155.472 6.264 156.608 6.488C157.936 6.76 159.024 7.048 159.872 7.352C160.736 7.64 161.488 8.12 162.128 8.792C162.768 9.464 163.096 10.376 163.112 11.528C163.112 13.48 162.448 14.928 161.12 15.872C159.808 16.816 158.048 17.288 155.84 17.288C153.264 17.288 151.256 16.856 149.816 15.992C148.392 15.128 147.68 13.6 147.68 11.408H152.696C152.696 12.24 152.912 12.8 153.344 13.088C153.776 13.36 154.448 13.496 155.36 13.496C156.032 13.496 156.584 13.424 157.016 13.28C157.464 13.136 157.688 12.84 157.688 12.392C157.688 11.992 157.44 11.696 156.944 11.504C156.464 11.296 155.672 11.08 154.568 10.856C153.224 10.568 152.112 10.272 151.232 9.968C150.352 9.648 149.584 9.128 148.928 8.408C148.272 7.688 147.944 6.712 147.944 5.48C147.944 3.672 148.64 2.344 150.032 1.496C151.44 0.631999 153.216 0.199999 155.36 0.199999Z" fill="#60A5FA"/>
<path d="M15.3113 4.712V3.712H14.3113V4.712H15.3113ZM15.3113 17V18H16.3113V17H15.3113ZM10.0073 17H9.00725V18H10.0073V17ZM10.0073 4.712H11.0073V3.712H10.0073V4.712ZM4.58325 4.712H3.58325V5.712H4.58325V4.712ZM4.58325 0.487999V-0.512001H3.58325V0.487999H4.58325ZM20.7113 0.487999H21.7113V-0.512001H20.7113V0.487999ZM20.7113 4.712V5.712H21.7113V4.712H20.7113ZM14.3113 4.712V17H16.3113V4.712H14.3113ZM15.3113 16H10.0073V18H15.3113V16ZM11.0073 17V4.712H9.00725V17H11.0073ZM10.0073 3.712H4.58325V5.712H10.0073V3.712ZM5.58325 4.712V0.487999H3.58325V4.712H5.58325ZM4.58325 1.488H20.7113V-0.512001H4.58325V1.488ZM19.7113 0.487999V4.712H21.7113V0.487999H19.7113ZM20.7113 3.712H15.3113V5.712H20.7113V3.712ZM23.1276 0.487999V-0.512001H22.1276V0.487999H23.1276ZM37.4076 0.487999H38.4076V-0.512001H37.4076V0.487999ZM37.4076 4.448V5.448H38.4076V4.448H37.4076ZM28.4316 4.448V3.448H27.4316V4.448H28.4316ZM28.4316 6.728H27.4316V7.728H28.4316V6.728ZM36.1116 6.728H37.1116V5.728H36.1116V6.728ZM36.1116 10.52V11.52H37.1116V10.52H36.1116ZM28.4316 10.52V9.52H27.4316V10.52H28.4316ZM28.4316 13.04H27.4316V14.04H28.4316V13.04ZM37.5756 13.04H38.5756V12.04H37.5756V13.04ZM37.5756 17V18H38.5756V17H37.5756ZM23.1276 17H22.1276V18H23.1276V17ZM23.1276 1.488H37.4076V-0.512001H23.1276V1.488ZM36.4076 0.487999V4.448H38.4076V0.487999H36.4076ZM37.4076 3.448H28.4316V5.448H37.4076V3.448ZM27.4316 4.448V6.728H29.4316V4.448H27.4316ZM28.4316 7.728H36.1116V5.728H28.4316V7.728ZM35.1116 6.728V10.52H37.1116V6.728H35.1116ZM36.1116 9.52H28.4316V11.52H36.1116V9.52ZM27.4316 10.52V13.04H29.4316V10.52H27.4316ZM28.4316 14.04H37.5756V12.04H28.4316V14.04ZM36.5756 13.04V17H38.5756V13.04H36.5756ZM37.5756 16H23.1276V18H37.5756V16ZM24.1276 17V0.487999H22.1276V17H24.1276ZM54.1279 2.048L53.4736 2.80426L53.4785 2.80846L54.1279 2.048ZM56.2639 7.28V8.28H57.2639V7.28H56.2639ZM51.1999 7.28H50.1999V8.28H51.1999V7.28ZM50.4319 5L49.6833 5.66303L49.6885 5.66894L49.6938 5.67477L50.4319 5ZM45.9199 5.168L45.1244 4.56196L45.1198 4.56802L45.1153 4.57415L45.9199 5.168ZM45.9199 12.32L45.1087 12.9048L45.1164 12.9155L45.1244 12.926L45.9199 12.32ZM50.5759 12.536L49.8688 11.8289L49.8688 11.8289L50.5759 12.536ZM51.3679 10.304V9.304H50.3679V10.304H51.3679ZM56.2639 10.304H57.2639V9.304H56.2639V10.304ZM54.1759 15.488L53.5229 14.7306L53.5186 14.7343L54.1759 15.488ZM41.9119 15.128L41.2048 15.8351L41.2087 15.839L41.9119 15.128ZM41.9119 2.36L41.2087 1.64899L41.2048 1.65289L41.9119 2.36ZM48.3199 1.2C50.6012 1.2 52.2801 1.77172 53.4736 2.80425L54.7822 1.29175C53.1276 -0.13972 50.9346 -0.800001 48.3199 -0.800001V1.2ZM53.4785 2.80846C54.6328 3.79418 55.2639 5.23225 55.2639 7.28H57.2639C57.2639 4.78375 56.4709 2.73382 54.7773 1.28754L53.4785 2.80846ZM56.2639 6.28H51.1999V8.28H56.2639V6.28ZM52.1999 7.28C52.1999 6.139 51.8917 5.11467 51.1699 4.32523L49.6938 5.67477C49.9961 6.00532 50.1999 6.501 50.1999 7.28H52.1999ZM51.1805 4.33697C50.4504 3.51268 49.4358 3.16 48.2959 3.16V5.16C49.012 5.16 49.4214 5.36732 49.6833 5.66303L51.1805 4.33697ZM48.2959 3.16C47.0041 3.16 45.8753 3.57646 45.1244 4.56196L46.7153 5.77404C46.9885 5.41554 47.4436 5.16 48.2959 5.16V3.16ZM45.1153 4.57415C44.4477 5.47867 44.1759 6.6523 44.1759 7.976H46.1759C46.1759 6.8997 46.4001 6.20133 46.7244 5.76185L45.1153 4.57415ZM44.1759 7.976V9.512H46.1759V7.976H44.1759ZM44.1759 9.512C44.1759 10.8251 44.4499 11.991 45.1087 12.9048L46.7311 11.7352C46.3979 11.273 46.1759 10.5669 46.1759 9.512H44.1759ZM45.1244 12.926C45.8694 13.9038 46.9759 14.328 48.2479 14.328V12.328C47.4398 12.328 46.9944 12.0802 46.7153 11.714L45.1244 12.926ZM48.2479 14.328C49.4364 14.328 50.5066 14.0195 51.283 13.2431L49.8688 11.8289C49.5892 12.1085 49.1074 12.328 48.2479 12.328V14.328ZM51.283 13.2431C52.048 12.4781 52.3679 11.4499 52.3679 10.304H50.3679C50.3679 11.0781 50.1598 11.5379 49.8688 11.8289L51.283 13.2431ZM51.3679 11.304H56.2639V9.304H51.3679V11.304ZM55.2639 10.304C55.2639 12.3411 54.6453 13.763 53.5229 14.7306L54.8288 16.2454C56.4905 14.813 57.2639 12.7789 57.2639 10.304H55.2639ZM53.5186 14.7343C52.3843 15.7236 50.6991 16.288 48.3199 16.288V18.288C50.9967 18.288 53.2155 17.6524 54.8331 16.2417L53.5186 14.7343ZM48.3199 16.288C45.6664 16.288 43.8227 15.6114 42.6151 14.417L41.2087 15.839C42.913 17.5246 45.3413 18.288 48.3199 18.288V16.288ZM42.619 14.4209C41.4288 13.2307 40.7519 11.3983 40.7519 8.744H38.7519C38.7519 11.7217 39.5149 14.1453 41.2048 15.8351L42.619 14.4209ZM40.7519 8.744C40.7519 6.08971 41.4288 4.25725 42.619 3.06711L41.2048 1.65289C39.5149 3.34275 38.7519 5.76629 38.7519 8.744H40.7519ZM42.6151 3.071C43.8227 1.87663 45.6664 1.2 48.3199 1.2V-0.800001C45.3413 -0.800001 42.913 -0.0366351 41.2087 1.649L42.6151 3.071ZM70.2636 17H69.2636V18H70.2636V17ZM70.2636 10.736H71.2636V9.736H70.2636V10.736ZM64.4316 10.736V9.736H63.4316V10.736H64.4316ZM64.4316 17V18H65.4316V17H64.4316ZM59.1276 17H58.1276V18H59.1276V17ZM59.1276 0.487999V-0.512001H58.1276V0.487999H59.1276ZM64.4316 0.487999H65.4316V-0.512001H64.4316V0.487999ZM64.4316 6.512H63.4316V7.512H64.4316V6.512ZM70.2636 6.512V7.512H71.2636V6.512H70.2636ZM70.2636 0.487999V-0.512001H69.2636V0.487999H70.2636ZM75.5676 0.487999H76.5676V-0.512001H75.5676V0.487999ZM75.5676 17V18H76.5676V17H75.5676ZM71.2636 17V10.736H69.2636V17H71.2636ZM70.2636 9.736H64.4316V11.736H70.2636V9.736ZM63.4316 10.736V17H65.4316V10.736H63.4316ZM64.4316 16H59.1276V18H64.4316V16ZM60.1276 17V0.487999H58.1276V17H60.1276ZM59.1276 1.488H64.4316V-0.512001H59.1276V1.488ZM63.4316 0.487999V6.512H65.4316V0.487999H63.4316ZM64.4316 7.512H70.2636V5.512H64.4316V7.512ZM71.2636 6.512V0.487999H69.2636V6.512H71.2636ZM70.2636 1.488H75.5676V-0.512001H70.2636V1.488ZM74.5676 0.487999V17H76.5676V0.487999H74.5676ZM75.5676 16H70.2636V18H75.5676V16ZM98.9199 17L98.1637 17.6543L98.4628 18H98.9199V17ZM91.9839 8.984L92.7401 8.32967L90.9839 6.3V8.984H91.9839ZM91.9839 17V18H92.9839V17H91.9839ZM87.1119 17H86.1119V18H87.1119V17ZM87.1119 0.487999V-0.512001H86.1119V0.487999H87.1119ZM91.7439 0.487999L92.5049 -0.160756L92.2055 -0.512001H91.7439V0.487999ZM98.6799 8.624L97.9189 9.27276L99.6799 11.3384V8.624H98.6799ZM98.6799 0.487999V-0.512001H97.6799V0.487999H98.6799ZM103.552 0.487999H104.552V-0.512001H103.552V0.487999ZM103.552 17V18H104.552V17H103.552ZM99.6762 16.3457L92.7401 8.32967L91.2277 9.63833L98.1637 17.6543L99.6762 16.3457ZM90.9839 8.984V17H92.9839V8.984H90.9839ZM91.9839 16H87.1119V18H91.9839V16ZM88.1119 17V0.487999H86.1119V17H88.1119ZM87.1119 1.488H91.7439V-0.512001H87.1119V1.488ZM90.9829 1.13675L97.9189 9.27276L99.4409 7.97524L92.5049 -0.160756L90.9829 1.13675ZM99.6799 8.624V0.487999H97.6799V8.624H99.6799ZM98.6799 1.488H103.552V-0.512001H98.6799V1.488ZM102.552 0.487999V17H104.552V0.487999H102.552ZM103.552 16H98.9199V18H103.552V16ZM107.104 0.487999V-0.512001H106.104V0.487999H107.104ZM121.384 0.487999H122.384V-0.512001H121.384V0.487999ZM121.384 4.448V5.448H122.384V4.448H121.384ZM112.408 4.448V3.448H111.408V4.448H112.408ZM112.408 6.728H111.408V7.728H112.408V6.728ZM120.088 6.728H121.088V5.728H120.088V6.728ZM120.088 10.52V11.52H121.088V10.52H120.088ZM112.408 10.52V9.52H111.408V10.52H112.408ZM112.408 13.04H111.408V14.04H112.408V13.04ZM121.552 13.04H122.552V12.04H121.552V13.04ZM121.552 17V18H122.552V17H121.552ZM107.104 17H106.104V18H107.104V17ZM107.104 1.488H121.384V-0.512001H107.104V1.488ZM120.384 0.487999V4.448H122.384V0.487999H120.384ZM121.384 3.448H112.408V5.448H121.384V3.448ZM111.408 4.448V6.728H113.408V4.448H111.408ZM112.408 7.728H120.088V5.728H112.408V7.728ZM119.088 6.728V10.52H121.088V6.728H119.088ZM120.088 9.52H112.408V11.52H120.088V9.52ZM111.408 10.52V13.04H113.408V10.52H111.408ZM112.408 14.04H121.552V12.04H112.408V14.04ZM120.552 13.04V17H122.552V13.04H120.552ZM121.552 16H107.104V18H121.552V16ZM108.104 17V0.487999H106.104V17H108.104ZM136.832 17L135.854 17.2078L136.023 18H136.832V17ZM134.696 6.944L135.675 6.73622L135.506 5.944H134.696V6.944ZM134.6 6.944V5.944H133.791L133.622 6.73622L134.6 6.944ZM132.464 17V18H133.274L133.443 17.2078L132.464 17ZM126.632 17L125.659 17.2279L125.839 18H126.632V17ZM122.768 0.487999V-0.512001H121.507L121.795 0.715855L122.768 0.487999ZM128.288 0.487999L129.269 0.289468L129.106 -0.512001H128.288V0.487999ZM130.184 9.848L129.204 10.0465L129.367 10.848H130.184V9.848ZM130.28 9.848V10.848H131.1L131.261 10.0441L130.28 9.848ZM132.152 0.487999V-0.512001H131.333L131.172 0.291883L132.152 0.487999ZM137.384 0.487999L138.363 0.279841L138.194 -0.512001H137.384V0.487999ZM139.376 9.848L138.398 10.0562L138.567 10.848H139.376V9.848ZM139.472 9.848V10.848H140.301L140.455 10.0344L139.472 9.848ZM141.248 0.487999V-0.512001H140.42L140.266 0.301582L141.248 0.487999ZM146.528 0.487999L147.502 0.715855L147.789 -0.512001H146.528V0.487999ZM142.664 17V18H143.457L143.638 17.2279L142.664 17ZM137.811 16.7922L135.675 6.73622L133.718 7.15177L135.854 17.2078L137.811 16.7922ZM134.696 5.944H134.6V7.944H134.696V5.944ZM133.622 6.73622L131.486 16.7922L133.443 17.2078L135.579 7.15177L133.622 6.73622ZM132.464 16H126.632V18H132.464V16ZM127.606 16.7721L123.742 0.260144L121.795 0.715855L125.659 17.2279L127.606 16.7721ZM122.768 1.488H128.288V-0.512001H122.768V1.488ZM127.308 0.686531L129.204 10.0465L131.165 9.64947L129.269 0.289468L127.308 0.686531ZM130.184 10.848H130.28V8.848H130.184V10.848ZM131.261 10.0441L133.133 0.684116L131.172 0.291883L129.3 9.65188L131.261 10.0441ZM132.152 1.488H137.384V-0.512001H132.152V1.488ZM136.406 0.696158L138.398 10.0562L140.355 9.63984L138.363 0.279841L136.406 0.696158ZM139.376 10.848H139.472V8.848H139.376V10.848ZM140.455 10.0344L142.231 0.674417L140.266 0.301582L138.49 9.66158L140.455 10.0344ZM141.248 1.488H146.528V-0.512001H141.248V1.488ZM145.555 0.260144L141.691 16.7721L143.638 17.2279L147.502 0.715855L145.555 0.260144ZM142.664 16H136.832V18H142.664V16ZM160.568 1.496L160.032 2.3401L160.039 2.34456L160.568 1.496ZM162.656 5.288H163.656V5.27848L163.656 5.26895L162.656 5.288ZM162.656 5.576V6.576H163.656V5.576H162.656ZM157.688 5.576H156.688V6.576H157.688V5.576ZM157.16 4.28L157.833 3.54006L157.833 3.54006L157.16 4.28ZM153.92 4.112L153.444 3.23271L153.436 3.237L153.428 3.24144L153.92 4.112ZM154.136 5.84L154.513 4.91353L154.513 4.91353L154.136 5.84ZM156.608 6.488L156.809 5.50831L156.802 5.50689L156.608 6.488ZM159.872 7.352L159.535 8.29334L159.546 8.29713L159.556 8.30068L159.872 7.352ZM163.112 11.528H164.113L164.112 11.5141L163.112 11.528ZM161.12 15.872L160.541 15.0569L160.536 15.0603L161.12 15.872ZM149.816 15.992L149.298 16.847L149.302 16.8495L149.816 15.992ZM147.68 11.408V10.408H146.68V11.408H147.68ZM152.696 11.408H153.696V10.408H152.696V11.408ZM153.344 13.088L152.79 13.9201L152.801 13.9273L152.812 13.9342L153.344 13.088ZM157.016 13.28L156.71 12.3279L156.7 12.3313L157.016 13.28ZM156.944 11.504L156.547 12.4216L156.565 12.4294L156.583 12.4366L156.944 11.504ZM154.568 10.856L154.359 11.8339L154.37 11.836L154.568 10.856ZM151.232 9.968L150.891 10.9078L150.898 10.9106L150.906 10.9132L151.232 9.968ZM148.928 8.408L148.189 9.08149L148.189 9.08149L148.928 8.408ZM150.032 1.496L150.553 2.35001L150.555 2.34832L150.032 1.496ZM155.36 1.2C157.34 1.2 158.875 1.60506 160.032 2.34007L161.105 0.651929C159.542 -0.341058 157.604 -0.800001 155.36 -0.800001V1.2ZM160.039 2.34456C161.096 3.00334 161.631 3.94571 161.657 5.30704L163.656 5.26895C163.618 3.27029 162.761 1.68466 161.098 0.647441L160.039 2.34456ZM161.656 5.288V5.576H163.656V5.288H161.656ZM162.656 4.576H157.688V6.576H162.656V4.576ZM158.688 5.576V5.48H156.688V5.576H158.688ZM158.688 5.48C158.688 4.72115 158.396 4.05152 157.833 3.54006L156.488 5.01994C156.629 5.14848 156.688 5.27884 156.688 5.48H158.688ZM157.833 3.54006C157.222 2.98473 156.397 2.8 155.552 2.8V4.8C156.148 4.8 156.395 4.93527 156.488 5.01994L157.833 3.54006ZM155.552 2.8C154.773 2.8 154.038 2.9112 153.444 3.23271L154.397 4.99129C154.571 4.8968 154.924 4.8 155.552 4.8V2.8ZM153.428 3.24144C152.884 3.54889 152.368 4.08093 152.368 4.88H154.368C154.368 4.90667 154.364 4.93925 154.353 4.97315C154.342 5.0067 154.328 5.0305 154.318 5.04364C154.31 5.05584 154.308 5.05458 154.322 5.04249C154.337 5.03017 154.365 5.0093 154.412 4.98256L153.428 3.24144ZM152.368 4.88C152.368 5.30983 152.502 5.72131 152.78 6.0687C153.045 6.40074 153.399 6.61965 153.76 6.76647L154.513 4.91353C154.362 4.85234 154.332 4.80726 154.341 4.8193C154.347 4.82684 154.357 4.84161 154.363 4.86074C154.369 4.87921 154.368 4.88797 154.368 4.88H152.368ZM153.76 6.76647C154.366 7.01254 155.269 7.24311 156.415 7.46911L156.802 5.50689C155.676 5.28489 154.931 5.08346 154.513 4.91353L153.76 6.76647ZM156.408 7.46766C157.71 7.73438 158.748 8.01116 159.535 8.29334L160.21 6.41066C159.301 6.08484 158.163 5.78561 156.809 5.50834L156.408 7.46766ZM159.556 8.30068C160.262 8.53597 160.875 8.92571 161.404 9.48166L162.853 8.10234C162.102 7.31429 161.211 6.74403 160.189 6.40332L159.556 8.30068ZM161.404 9.48166C161.831 9.92979 162.099 10.5782 162.113 11.5419L164.112 11.5141C164.094 10.1738 163.706 8.99821 162.853 8.10234L161.404 9.48166ZM162.112 11.528C162.112 13.2291 161.551 14.3391 160.541 15.0569L161.7 16.6871C163.346 15.5169 164.112 13.7309 164.112 11.528H162.112ZM160.536 15.0603C159.447 15.8443 157.914 16.288 155.84 16.288V18.288C158.183 18.288 160.17 17.7877 161.704 16.6837L160.536 15.0603ZM155.84 16.288C153.357 16.288 151.554 15.8681 150.331 15.1345L149.302 16.8495C150.959 17.8439 153.172 18.288 155.84 18.288V16.288ZM150.335 15.1371C149.303 14.511 148.68 13.3757 148.68 11.408H146.68C146.68 13.8243 147.482 15.745 149.298 16.8469L150.335 15.1371ZM147.68 12.408H152.696V10.408H147.68V12.408ZM151.696 11.408C151.696 12.367 151.943 13.3553 152.79 13.9201L153.899 12.2559C153.882 12.2447 153.696 12.113 153.696 11.408H151.696ZM152.812 13.9342C153.485 14.3583 154.388 14.496 155.36 14.496V12.496C154.508 12.496 154.068 12.3617 153.877 12.2418L152.812 13.9342ZM155.36 14.496C156.094 14.496 156.763 14.4187 157.333 14.2287L156.7 12.3313C156.406 12.4293 155.971 12.496 155.36 12.496V14.496ZM157.322 14.232C157.69 14.114 158.052 13.9045 158.318 13.5534C158.587 13.1981 158.688 12.7875 158.688 12.392H156.688C156.688 12.421 156.685 12.4248 156.689 12.4112C156.694 12.3958 156.704 12.3716 156.723 12.3466C156.742 12.3219 156.759 12.3096 156.763 12.3069C156.765 12.3052 156.751 12.3148 156.71 12.328L157.322 14.232ZM158.688 12.392C158.688 11.9663 158.55 11.5627 158.269 11.2278C158.003 10.9106 157.654 10.7065 157.305 10.5714L156.583 12.4366C156.654 12.4639 156.698 12.488 156.721 12.5037C156.745 12.519 156.745 12.5236 156.736 12.5122C156.725 12.4994 156.711 12.477 156.7 12.4472C156.69 12.4178 156.688 12.3969 156.688 12.392H158.688ZM157.342 10.5864C156.76 10.3341 155.88 10.1017 154.767 9.87597L154.37 11.836C155.465 12.0583 156.169 12.2579 156.547 12.4216L157.342 10.5864ZM154.778 9.8782C153.457 9.5951 152.387 9.30897 151.559 9.02281L150.906 10.9132C151.838 11.235 152.992 11.5409 154.359 11.8338L154.778 9.8782ZM151.574 9.02821C150.852 8.76576 150.219 8.33987 149.668 7.73451L148.189 9.08149C148.95 9.91613 149.852 10.5302 150.891 10.9078L151.574 9.02821ZM149.668 7.73451C149.22 7.2437 148.944 6.53131 148.944 5.48H146.944C146.944 6.89269 147.324 8.1323 148.189 9.08149L149.668 7.73451ZM148.944 5.48C148.944 3.97524 149.496 2.99397 150.553 2.35001L149.512 0.64199C147.785 1.69403 146.944 3.36876 146.944 5.48H148.944ZM150.555 2.34832C151.766 1.60567 153.347 1.2 155.36 1.2V-0.800001C153.086 -0.800001 151.115 -0.341674 149.509 0.643677L150.555 2.34832Z" fill="black" mask="url(#path-1-outside-1_4109_367)"/>
</g>
<defs>
<filter id="filter0_d_4109_367" x="0.583252" y="0.200012" width="166.529" height="25.088" filterUnits="userSpaceOnUse" color-interpolation-filters="sRGB">
<feFlood flood-opacity="0" result="BackgroundImageFix"/>
<feColorMatrix in="SourceAlpha" type="matrix" values="0 0 0 0 0 0 0 0 0 0 0 0 0 0 0 0 0 0 127 0" result="hardAlpha"/>
<feOffset dy="4"/>
<feGaussianBlur stdDeviation="2"/>
<feComposite in2="hardAlpha" operator="out"/>
<feColorMatrix type="matrix" values="0 0 0 0 0 0 0 0 0 0 0 0 0 0 0 0 0 0 0.25 0"/>
<feBlend mode="normal" in2="BackgroundImageFix" result="effect1_dropShadow_4109_367"/>
<feBlend mode="normal" in="SourceGraphic" in2="effect1_dropShadow_4109_367" result="shape"/>
</filter>
</defs>
</svg>
